<svg xmlns="http://www.w3.org/2000/svg" viewBox="0 0 38 38"><g fill="#010101"><path d="M19 3.4c5.1 0 5.7 0 7.7.1 1.9.1 2.9.4 3.5.7.9.3 1.5.8 2.2 1.4.7.7 1.1 1.3 1.4 2.2.3.7.6 1.7.7 3.5.1 2 .1 2.6.1 7.7s0 5.7-.1 7.7c-.1 1.9-.4 2.9-.7 3.5-.3.9-.8 1.5-1.4 2.2-.7.7-1.3 1.1-2.2 1.4-.7.3-1.7.6-3.5.7-2 .1-2.6.1-7.7.1s-5.7 0-7.7-.1c-1.9-.1-2.9-.4-3.5-.7-.9-.3-1.5-.8-2.2-1.4-.7-.7-1.1-1.3-1.4-2.2-.3-.7-.6-1.7-.7-3.5-.1-2-.1-2.6-.1-7.7s0-5.7.1-7.7c.1-1.9.4-2.9.7-3.5.3-.9.8-1.5 1.4-2.2s1.3-1.1 2.2-1.4c.7-.3 1.7-.6 3.5-.7 2-.1 2.6-.1 7.7-.1M19 0c-5.2 0-5.8 0-7.8.1-2.1.1-3.4.4-4.6.9-1.3.5-2.4 1.1-3.4 2.2S1.5 5.3 1 6.6C.5 7.8.2 9.2.1 11.2 0 13.2 0 13.8 0 19s0 5.8.1 7.8.4 3.4.9 4.6c.5 1.3 1.1 2.3 2.2 3.4s2.1 1.7 3.4 2.2c1.2.5 2.6.8 4.6.9s2.6.1 7.8.1 5.8 0 7.8-.1 3.4-.4 4.6-.9c1.3-.5 2.3-1.1 3.4-2.2s1.7-2.1 2.2-3.4c.5-1.2.8-2.6.9-4.6s.1-2.6.1-7.8 0-5.8-.1-7.8-.4-3.4-.9-4.6c-.5-1.3-1.1-2.3-2.2-3.4S32.7 1.5 31.4 1C30.2.5 28.8.2 26.8.1 24.8 0 24.1 0 19 0z"/><path d="M19 9.2c-5.4 0-9.8 4.4-9.8 9.8s4.4 9.8 9.8 9.8 9.8-4.4 9.8-9.8-4.4-9.8-9.8-9.8zm0 16.1c-3.5 0-6.3-2.8-6.3-6.3s2.8-6.3 6.3-6.3 6.3 2.8 6.3 6.3-2.8 6.3-6.3 6.3z"/><circle cx="29.1" cy="8.9" r="2.3"/></g></svg>