<svg xmlns="http://www.w3.org/2000/svg" viewBox="0 0 16.3 13.6"><path d="M3.3 13.6c-.9 0-2-.5-2.6-1.4-.6-.8-.8-1.7-.7-2.5.2-.7.5-1.2 1-1.5L11.8.4c1.2-.8 2.9-.3 3.9 1.1.5.7.8 1.6.6 2.4-.1.6-.4 1.1-.9 1.5l-1.7 1.4c-.2.2-.6.1-.7-.1-.2-.2-.1-.6.1-.7l1.8-1.4c.4-.2.5-.6.5-.8.1-.5-.1-1.1-.4-1.6-.6-.9-1.8-1.3-2.4-.8L1.6 9c-.4.3-.5.6-.5.9-.1.5 0 1.1.4 1.6.6.9 1.8 1.3 2.4.8l.3-.2 6.5-4.8c.1-.1.2-.2.2-.3 0-.2 0-.5-.2-.8-.3-.4-.8-.6-1.1-.4l-6.5 4.8c-.2.2-.6.1-.7-.1-.2-.2-.1-.5.1-.7L9 5c.8-.5 1.9-.2 2.5.7.3.5.5 1.1.4 1.6-.1.4-.3.8-.6 1l-6.8 4.9c-.3.2-.8.4-1.2.4"/></svg>