<?xml version="1.0" encoding="utf-8"?>
<!-- Generator: Adobe Illustrator 18.0.0, SVG Export Plug-In . SVG Version: 6.00 Build 0)  -->
<!DOCTYPE svg PUBLIC "-//W3C//DTD SVG 1.1//EN" "http://www.w3.org/Graphics/SVG/1.1/DTD/svg11.dtd">
<svg version="1.1" id="Warstwa_1" xmlns="http://www.w3.org/2000/svg" xmlns:xlink="http://www.w3.org/1999/xlink" x="0px" y="0px"
	 viewBox="0 0 31 31" enable-background="new 0 0 31 31" xml:space="preserve">
<path fill-rule="evenodd" clip-rule="evenodd" d="M30.4,29.4c-0.8,0.8-2.1,0.8-2.9,0L16,17.9L3.5,30.4c-0.8,0.8-2.1,0.8-2.9,0
	c-0.8-0.8-0.8-2.1,0-2.9L13.1,15L1.6,3.5c-0.8-0.8-0.8-2.1,0-2.9c0.8-0.8,2.1-0.8,2.9,0L16,12.1L26.5,1.6c0.8-0.8,2.1-0.8,2.9,0
	c0.8,0.8,0.8,2.1,0,2.9L18.9,15l11.5,11.5C31.2,27.3,31.2,28.6,30.4,29.4z"/>
</svg>
