<?xml version="1.0" encoding="utf-8"?>
<!-- Generator: Adobe Illustrator 18.0.0, SVG Export Plug-In . SVG Version: 6.00 Build 0)  -->
<!DOCTYPE svg PUBLIC "-//W3C//DTD SVG 1.1//EN" "http://www.w3.org/Graphics/SVG/1.1/DTD/svg11.dtd">
<svg version="1.1" id="Warstwa_1" xmlns="http://www.w3.org/2000/svg" xmlns:xlink="http://www.w3.org/1999/xlink" x="0px" y="0px"
	 viewBox="0 0 11.6 11.6" enable-background="new 0 0 11.6 11.6" xml:space="preserve">
<g>
	<path fill-rule="evenodd" clip-rule="evenodd" d="M10.4,6.3l1.2-0.9L11,3.3L9.6,3l-1-1L8.3,0.6L6.2,0L5.3,1.2L3.9,1.5L2.5,1L1,2.5
		l0.5,1.4L1.2,5.3L0,6.2l0.6,2.1L2,8.6l1,1L3.3,11l2.1,0.6l0.9-1.2l1.4-0.4l1.4,0.5l1.5-1.5l-0.5-1.4L10.4,6.3z M5.8,8.5
		c-1.5,0-2.7-1.2-2.7-2.7s1.2-2.7,2.7-2.7c1.5,0,2.7,1.2,2.7,2.7S7.3,8.5,5.8,8.5"/>
	<path fill-rule="evenodd" clip-rule="evenodd" d="M7.5,5.8c0,0.9-0.8,1.7-1.7,1.7c-0.9,0-1.7-0.8-1.7-1.7c0-0.9,0.8-1.7,1.7-1.7
		C6.7,4.1,7.5,4.9,7.5,5.8"/>
</g>
</svg>
