<?xml version="1.0" encoding="utf-8"?>
<!-- Generator: Adobe Illustrator 18.0.0, SVG Export Plug-In . SVG Version: 6.00 Build 0)  -->
<!DOCTYPE svg PUBLIC "-//W3C//DTD SVG 1.1//EN" "http://www.w3.org/Graphics/SVG/1.1/DTD/svg11.dtd">
<svg version="1.1" id="Warstwa_1" xmlns="http://www.w3.org/2000/svg" xmlns:xlink="http://www.w3.org/1999/xlink" x="0px" y="0px"
	 viewBox="0 0 38 38" enable-background="new 0 0 38 38" xml:space="preserve">
<g>
	<path fill="#010101" d="M19,3.4c5.1,0,5.7,0,7.7,0.1c1.9,0.1,2.9,0.4,3.5,0.7c0.9,0.3,1.5,0.8,2.2,1.4c0.7,0.7,1.1,1.3,1.4,2.2
		c0.3,0.7,0.6,1.7,0.7,3.5c0.1,2,0.1,2.6,0.1,7.7s0,5.7-0.1,7.7c-0.1,1.9-0.4,2.9-0.7,3.5c-0.3,0.9-0.8,1.5-1.4,2.2
		c-0.7,0.7-1.3,1.1-2.2,1.4c-0.7,0.3-1.7,0.6-3.5,0.7c-2,0.1-2.6,0.1-7.7,0.1s-5.7,0-7.7-0.1c-1.9-0.1-2.9-0.4-3.5-0.7
		c-0.9-0.3-1.5-0.8-2.2-1.4c-0.7-0.7-1.1-1.3-1.4-2.2c-0.3-0.7-0.6-1.7-0.7-3.5c-0.1-2-0.1-2.6-0.1-7.7s0-5.7,0.1-7.7
		c0.1-1.9,0.4-2.9,0.7-3.5c0.3-0.9,0.8-1.5,1.4-2.2s1.3-1.1,2.2-1.4c0.7-0.3,1.7-0.6,3.5-0.7C13.3,3.4,13.9,3.4,19,3.4 M19,0
		c-5.2,0-5.8,0-7.8,0.1C9.1,0.2,7.8,0.5,6.6,1C5.3,1.5,4.2,2.1,3.2,3.2S1.5,5.3,1,6.6c-0.5,1.2-0.8,2.6-0.9,4.6C0,13.2,0,13.8,0,19
		s0,5.8,0.1,7.8c0.1,2,0.4,3.4,0.9,4.6c0.5,1.3,1.1,2.3,2.2,3.4c1.1,1.1,2.1,1.7,3.4,2.2c1.2,0.5,2.6,0.8,4.6,0.9S13.8,38,19,38
		s5.8,0,7.8-0.1c2-0.1,3.4-0.4,4.6-0.9c1.3-0.5,2.3-1.1,3.4-2.2c1.1-1.1,1.7-2.1,2.2-3.4c0.5-1.2,0.8-2.6,0.9-4.6S38,24.2,38,19
		s0-5.8-0.1-7.8c-0.1-2-0.4-3.4-0.9-4.6c-0.5-1.3-1.1-2.3-2.2-3.4c-1.1-1.1-2.1-1.7-3.4-2.2c-1.2-0.5-2.6-0.8-4.6-0.9
		C24.8,0,24.1,0,19,0L19,0z"/>
	<path fill="#010101" d="M19,9.2c-5.4,0-9.8,4.4-9.8,9.8s4.4,9.8,9.8,9.8s9.8-4.4,9.8-9.8S24.4,9.2,19,9.2z M19,25.3
		c-3.5,0-6.3-2.8-6.3-6.3s2.8-6.3,6.3-6.3s6.3,2.8,6.3,6.3S22.5,25.3,19,25.3z"/>
	<circle fill="#010101" cx="29.1" cy="8.9" r="2.3"/>
</g>
</svg>
