<?xml version="1.0" encoding="utf-8"?>
<!-- Generator: Adobe Illustrator 18.0.0, SVG Export Plug-In . SVG Version: 6.00 Build 0)  -->
<!DOCTYPE svg PUBLIC "-//W3C//DTD SVG 1.1//EN" "http://www.w3.org/Graphics/SVG/1.1/DTD/svg11.dtd">
<svg version="1.1" id="Warstwa_1" xmlns="http://www.w3.org/2000/svg" xmlns:xlink="http://www.w3.org/1999/xlink" x="0px" y="0px"
	 viewBox="0 0 40 24" enable-background="new 0 0 40 24" xml:space="preserve">
<path fill-rule="evenodd" clip-rule="evenodd" d="M38,14H2c-1.1,0-2-0.9-2-2c0-1.1,0.9-2,2-2h36c1.1,0,2,0.9,2,2
	C40,13.1,39.1,14,38,14z M38,4H2C0.9,4,0,3.1,0,2c0-1.1,0.9-2,2-2h36c1.1,0,2,0.9,2,2C40,3.1,39.1,4,38,4z M2,20h36c1.1,0,2,0.9,2,2
	c0,1.1-0.9,2-2,2H2c-1.1,0-2-0.9-2-2C0,20.9,0.9,20,2,20z"/>
</svg>
