<?xml version="1.0" encoding="utf-8"?>
<!-- Generator: Adobe Illustrator 18.0.0, SVG Export Plug-In . SVG Version: 6.00 Build 0)  -->
<!DOCTYPE svg PUBLIC "-//W3C//DTD SVG 1.1//EN" "http://www.w3.org/Graphics/SVG/1.1/DTD/svg11.dtd">
<svg version="1.1" id="Warstwa_1" xmlns="http://www.w3.org/2000/svg" xmlns:xlink="http://www.w3.org/1999/xlink" x="0px" y="0px"
	 viewBox="0 0 16.3 13.6" enable-background="new 0 0 16.3 13.6" xml:space="preserve">
<g>
	<path d="M3.3,13.6c-0.9,0-2-0.5-2.6-1.4C0.1,11.4-0.1,10.5,0,9.7C0.2,9,0.5,8.5,1,8.2l10.8-7.8c1.2-0.8,2.9-0.3,3.9,1.1
		c0.5,0.7,0.8,1.6,0.6,2.4c-0.1,0.6-0.4,1.1-0.9,1.5l-1.7,1.4c-0.2,0.2-0.6,0.1-0.7-0.1c-0.2-0.2-0.1-0.6,0.1-0.7l1.8-1.4
		c0.4-0.2,0.5-0.6,0.5-0.8c0.1-0.5-0.1-1.1-0.4-1.6c-0.6-0.9-1.8-1.3-2.4-0.8L1.6,9C1.2,9.3,1.1,9.6,1.1,9.9C1,10.4,1.1,11,1.5,11.5
		c0.6,0.9,1.8,1.3,2.4,0.8l0.3-0.2l6.5-4.8c0.1-0.1,0.2-0.2,0.2-0.3c0-0.2,0-0.5-0.2-0.8c-0.3-0.4-0.8-0.6-1.1-0.4l-6.5,4.8
		c-0.2,0.2-0.6,0.1-0.7-0.1C2.2,10.3,2.3,10,2.5,9.8L9,5c0.8-0.5,1.9-0.2,2.5,0.7c0.3,0.5,0.5,1.1,0.4,1.6c-0.1,0.4-0.3,0.8-0.6,1
		l-6.8,4.9C4.2,13.4,3.7,13.6,3.3,13.6"/>
</g>
</svg>
